<?xml version="1.0" encoding="UTF-8" standalone="no"?>
<svg xmlns="http://www.w3.org/2000/svg" version="1.2" baseProfile="tiny" viewBox="0.00 0.00 512.00 512.00">
<path fill="#FFFFFF" d="
  M 512.00 454.53
  L 512.00 455.83
  C 510.12 464.08 504.39 463.29 496.57 463.30
  Q 468.66 463.36 440.74 463.30
  Q 428.13 463.28 420.77 462.65
  C 381.49 459.31 344.13 445.04 305.00 439.57
  C 275.36 435.42 244.83 436.11 214.88 441.15
  C 185.78 446.05 151.62 456.55 131.76 459.86
  Q 111.64 463.23 100.00 463.26
  Q 54.75 463.39 9.50 463.38
  Q 1.52 463.38 0.00 455.65
  L 0.00 454.39
  Q 1.66 446.19 10.01 446.69
  Q 28.19 447.77 44.66 440.16
  Q 57.95 434.01 70.42 426.34
  A 0.72 0.71 -15.8 0 0 70.77 425.73
  L 70.76 384.51
  A 0.57 0.56 -85.9 0 0 70.28 383.95
  C 52.92 381.27 35.43 368.29 35.41 349.76
  Q 35.40 342.21 38.04 329.97
  Q 42.56 309.04 50.91 289.38
  C 53.77 282.67 57.17 276.57 61.37 271.12
  C 67.59 263.05 77.73 257.97 87.57 263.15
  C 98.18 268.73 105.61 284.24 109.55 295.06
  Q 109.84 295.85 110.03 295.03
  C 115.30 271.85 123.05 242.25 137.51 221.05
  Q 139.93 217.51 144.19 213.99
  C 167.22 194.99 184.30 225.03 191.41 242.63
  C 200.37 264.84 207.32 289.48 210.35 313.97
  Q 211.66 324.62 210.10 331.53
  C 205.66 351.11 186.75 363.67 167.57 366.32
  A 0.68 0.67 86.1 0 0 166.99 366.99
  L 166.99 385.22
  Q 166.99 385.73 167.49 385.68
  C 195.08 383.31 220.97 390.82 245.74 402.63
  A 0.88 0.88 0.0 0 0 246.62 402.56
  C 258.93 394.13 269.98 386.29 284.40 379.36
  Q 304.42 369.74 326.77 367.56
  A 0.58 0.57 -2.8 0 0 327.29 366.99
  L 327.29 312.98
  Q 327.29 312.37 326.68 312.29
  C 291.30 307.31 265.37 277.93 265.42 242.50
  C 265.43 233.43 266.73 223.17 268.67 213.60
  Q 273.88 187.82 283.26 160.99
  Q 301.88 107.74 327.94 53.91
  C 331.09 47.40 339.44 46.65 342.79 53.35
  Q 374.05 115.99 394.42 180.76
  Q 402.49 206.44 405.62 234.85
  Q 405.69 235.54 406.16 235.03
  Q 410.72 230.08 414.45 228.18
  C 449.96 210.11 468.84 294.44 472.96 314.78
  C 475.28 326.24 477.89 338.89 475.48 349.43
  C 471.04 368.80 452.00 381.29 433.25 384.00
  A 1.02 1.02 0.0 0 0 432.37 385.01
  L 432.37 407.67
  Q 432.37 408.22 432.82 408.56
  Q 444.61 417.54 456.73 426.27
  C 467.85 434.28 480.51 442.59 493.20 445.28
  Q 498.01 446.30 503.75 446.75
  Q 510.75 447.31 512.00 454.53
  Z
  M 315.06 237.33
  Q 321.31 242.71 326.70 248.82
  A 0.34 0.34 0.0 0 0 327.30 248.59
  Q 327.26 228.19 327.30 207.75
  C 327.32 196.74 343.64 195.76 343.77 208.27
  Q 343.84 215.06 343.98 221.96
  Q 343.99 222.59 344.44 222.15
  Q 349.11 217.57 353.70 212.92
  Q 357.03 209.55 358.82 208.73
  C 365.15 205.82 372.25 212.00 369.95 218.73
  Q 369.22 220.87 365.34 224.74
  Q 354.84 235.23 344.33 245.76
  A 1.37 1.35 -22.8 0 0 343.93 246.72
  L 343.93 295.00
  Q 343.93 295.50 344.43 295.42
  C 370.60 291.11 388.37 269.11 389.15 243.31
  Q 389.32 237.60 388.13 227.70
  Q 386.94 217.83 385.57 212.22
  Q 375.54 171.19 358.47 129.27
  Q 346.24 99.22 335.89 77.07
  Q 335.62 76.49 335.35 77.07
  C 316.50 117.51 298.60 161.62 287.33 205.62
  C 284.82 215.45 282.91 226.21 282.27 235.50
  Q 279.76 271.54 309.98 289.80
  Q 316.46 293.71 326.79 295.41
  Q 327.29 295.49 327.29 294.99
  L 327.29 273.23
  Q 327.29 272.69 326.91 272.31
  Q 316.61 261.97 306.29 251.66
  Q 302.16 247.53 301.29 245.42
  C 299.24 240.44 304.05 233.80 309.68 234.50
  Q 312.11 234.80 315.06 237.33
  Z
  M 150.41 331.27
  C 150.31 320.47 167.03 320.32 166.98 331.51
  Q 166.94 340.32 167.01 349.17
  Q 167.01 349.70 167.53 349.61
  C 180.49 347.29 194.84 337.33 194.62 323.01
  C 194.47 313.32 191.71 301.35 189.26 290.79
  Q 184.25 269.23 175.28 247.20
  C 172.69 240.85 165.46 225.91 158.75 224.58
  Q 158.28 224.49 157.85 224.70
  C 149.40 228.95 142.54 245.03 139.24 254.02
  Q 128.16 284.20 123.82 314.29
  Q 122.74 321.78 122.76 323.75
  C 122.87 337.57 137.22 347.38 149.84 349.58
  Q 150.39 349.68 150.39 349.12
  Q 150.49 340.10 150.41 331.27
  Z
  M 415.77 349.76
  C 415.73 340.64 427.43 337.03 431.27 345.16
  Q 432.43 347.60 432.38 353.08
  Q 432.32 359.93 432.40 366.82
  Q 432.40 367.33 432.91 367.25
  C 445.70 365.11 460.56 354.85 460.01 340.50
  C 459.63 330.54 457.24 319.76 454.77 308.95
  C 451.66 295.34 438.54 246.35 424.20 242.24
  A 1.23 1.21 -50.3 0 0 423.31 242.33
  C 415.01 246.71 407.96 262.30 404.56 271.46
  Q 395.25 296.56 390.53 322.84
  Q 387.84 337.81 388.36 342.65
  C 389.82 356.28 402.34 364.95 415.24 367.31
  Q 415.74 367.40 415.74 366.89
  Q 415.81 358.31 415.77 349.76
  Z
  M 70.78 349.26
  C 70.79 340.35 82.79 337.37 86.35 345.31
  Q 87.44 347.74 87.39 353.41
  Q 87.33 359.99 87.39 366.59
  Q 87.40 367.07 87.86 366.96
  Q 94.37 365.50 99.06 362.07
  C 108.17 355.40 106.38 347.77 104.29 336.73
  Q 100.38 316.12 92.39 296.67
  Q 88.28 286.69 81.30 278.74
  A 2.76 2.76 0.0 0 0 77.50 278.40
  C 71.70 283.02 67.32 292.77 64.67 299.56
  Q 57.82 317.05 54.09 335.40
  Q 51.74 346.94 52.18 350.70
  C 53.31 360.14 61.69 364.68 70.26 367.06
  Q 70.76 367.20 70.76 366.69
  Q 70.78 357.94 70.78 349.26
  Z
  M 415.20 384.09
  C 397.80 381.30 383.43 372.71 375.09 356.70
  Q 372.72 352.14 371.93 345.51
  Q 371.36 340.75 372.11 333.99
  Q 374.07 316.25 378.84 298.83
  A 0.43 0.43 0.0 0 0 378.17 298.38
  Q 363.26 309.80 344.58 312.24
  Q 343.93 312.33 343.93 312.98
  L 343.93 366.94
  Q 343.93 367.39 344.37 367.44
  Q 374.37 370.71 400.07 386.48
  Q 407.72 391.17 415.29 396.00
  A 0.32 0.32 0.0 0 0 415.78 395.73
  L 415.76 384.75
  A 0.67 0.67 0.0 0 0 415.20 384.09
  Z
  M 119.49 362.81
  C 113.16 374.87 101.10 381.73 87.95 384.05
  Q 87.37 384.15 87.37 384.73
  L 87.37 415.51
  Q 87.37 416.20 87.97 415.85
  C 107.89 404.07 127.39 394.16 149.95 388.30
  Q 150.42 388.18 150.42 387.69
  L 150.42 367.04
  Q 150.42 366.48 149.87 366.41
  Q 134.88 364.35 122.88 355.23
  Q 122.30 354.78 122.10 355.49
  C 121.36 358.11 120.64 360.63 119.49 362.81
  Z
  M 287.43 396.42
  Q 268.92 406.03 250.98 420.27
  Q 250.47 420.67 251.11 420.64
  Q 282.72 419.31 306.91 423.10
  C 339.36 428.18 366.56 435.93 396.41 442.61
  C 415.95 446.98 436.46 447.22 456.18 446.65
  Q 456.76 446.63 456.29 446.29
  Q 435.99 431.82 415.97 416.96
  C 404.89 408.72 395.95 402.93 384.78 396.98
  Q 336.19 371.08 287.43 396.42
  Z
  M 123.43 415.41
  Q 97.11 428.79 69.50 446.45
  Q 69.22 446.63 69.55 446.64
  C 87.61 447.14 105.98 447.14 123.89 444.28
  Q 138.74 441.91 146.28 439.87
  Q 180.77 430.56 215.91 424.05
  Q 218.23 423.62 220.11 422.26
  Q 225.40 418.42 230.48 414.54
  A 0.39 0.39 0.0 0 0 230.40 413.87
  C 215.11 407.33 198.00 402.28 181.52 401.86
  C 161.76 401.36 141.09 406.44 123.43 415.41
  Z"
/>
</svg>
