<?xml version="1.0" standalone="no"?>
<!DOCTYPE svg PUBLIC "-//W3C//DTD SVG 20010904//EN"
 "http://www.w3.org/TR/2001/REC-SVG-20010904/DTD/svg10.dtd">
<svg version="1.0" xmlns="http://www.w3.org/2000/svg"
 width="700.000000pt" height="700.000000pt" viewBox="0 0 700.000000 700.000000"
 preserveAspectRatio="xMidYMid meet">
<metadata>
Created by potrace 1.14, written by Peter Selinger 2001-2017
</metadata>
<g transform="translate(0.000000,700.000000) scale(0.100000,-0.100000)"
fill="#000000" stroke="none">
<path d="M4540 6318 c-32 -16 -45 -33 -80 -106 -48 -98 -210 -451 -210 -457 0
-2 -13 -32 -29 -67 -16 -35 -41 -92 -55 -128 -15 -36 -31 -74 -36 -85 -91
-197 -307 -807 -380 -1074 -37 -134 -32 -111 -69 -291 -40 -191 -46 -249 -46
-410 0 -160 7 -206 46 -323 106 -318 361 -547 702 -631 l91 -22 0 -372 c0
-204 -2 -373 -5 -375 -2 -3 -29 -7 -59 -11 -73 -8 -99 -13 -200 -38 -227 -55
-425 -153 -734 -360 l-109 -74 -122 52 c-195 84 -382 140 -565 169 -48 7 -197
17 -305 18 l-90 2 -1 128 c0 70 2 127 5 128 218 28 441 170 530 338 80 152 83
290 15 631 -39 192 -133 520 -179 625 -7 17 -27 66 -45 110 -112 284 -286 465
-442 460 -170 -5 -311 -157 -451 -485 -61 -145 -181 -523 -192 -610 -6 -43
-18 -90 -24 -90 -3 0 -21 38 -40 83 -70 166 -171 300 -265 350 -60 31 -165 30
-228 -2 -108 -55 -201 -185 -292 -408 -114 -279 -190 -591 -189 -773 0 -208
165 -389 414 -456 l66 -17 1 -286 1 -286 -90 -53 c-103 -62 -315 -165 -374
-182 -114 -33 -161 -41 -284 -46 -73 -3 -144 -10 -157 -14 -13 -5 -33 -24 -44
-42 -38 -60 -7 -144 59 -166 27 -9 1335 -8 1431 1 208 20 374 51 695 131 184
46 282 69 470 112 11 3 31 7 45 10 14 3 72 14 130 26 58 11 116 22 130 23 14
2 77 10 140 19 160 21 307 30 505 30 156 0 411 -11 424 -18 4 -2 35 -7 71 -10
55 -6 187 -26 255 -40 141 -28 265 -57 615 -141 238 -57 201 -49 350 -79 144
-28 322 -54 430 -63 139 -10 1110 -9 1148 2 42 12 82 63 82 104 0 35 -35 89
-64 101 -13 5 -50 12 -83 15 -231 25 -400 115 -846 452 l-97 74 2 162 3 161
90 24 c91 23 226 88 280 133 210 176 262 345 206 664 -67 379 -179 752 -293
980 -89 176 -186 293 -286 342 -101 49 -224 26 -321 -62 -23 -21 -43 -36 -45
-34 -2 2 -6 33 -10 69 -8 88 -41 271 -72 405 -91 386 -372 1149 -605 1643 -27
57 -49 106 -49 108 0 14 -135 273 -151 290 -28 30 -73 35 -119 12z m81 -435
c111 -243 287 -660 343 -813 16 -41 34 -88 41 -105 44 -98 190 -570 251 -805
63 -246 79 -532 36 -670 -57 -189 -168 -337 -324 -431 -67 -41 -176 -83 -234
-92 l-31 -5 0 338 0 337 169 169 c94 93 174 176 179 185 36 67 -11 154 -88
163 -44 6 -80 -16 -168 -104 -43 -44 -82 -80 -86 -80 -4 0 -7 48 -8 107 -2
122 -16 163 -63 186 -57 27 -128 2 -152 -53 -8 -20 -11 -115 -11 -319 0 -160
-2 -291 -5 -291 -3 0 -41 37 -85 81 -92 93 -141 121 -189 108 -58 -16 -96 -90
-75 -146 5 -15 85 -103 177 -195 92 -93 169 -178 172 -191 3 -12 5 -83 5 -157
l-2 -135 -29 3 c-113 11 -267 95 -375 203 -231 232 -267 526 -130 1054 11 44
34 127 51 185 17 58 33 112 35 120 35 127 164 487 261 725 106 262 121 298
179 425 28 63 67 150 86 192 19 43 35 78 36 78 2 0 17 -30 34 -67z m-2376
-2007 c77 -83 147 -225 229 -465 43 -124 101 -322 110 -371 2 -14 11 -52 19
-85 8 -33 18 -76 21 -95 3 -19 8 -46 11 -60 29 -143 29 -273 -2 -340 -46 -104
-185 -205 -318 -234 l-31 -7 -1 140 c-1 151 -11 188 -60 210 -53 24 -130 3
-154 -41 -7 -13 -12 -76 -13 -159 -1 -76 -4 -140 -7 -143 -9 -10 -111 24 -165
55 -123 70 -191 161 -200 271 -15 168 128 765 253 1058 87 203 188 331 248
314 11 -3 38 -25 60 -48z m3577 -197 c55 -29 130 -132 179 -244 12 -27 31 -70
42 -95 44 -100 160 -479 181 -595 3 -14 7 -33 10 -43 3 -9 7 -28 10 -42 2 -14
12 -65 21 -115 10 -49 18 -133 19 -185 1 -81 -3 -103 -23 -145 -27 -58 -108
-139 -172 -174 -47 -25 -144 -61 -165 -61 -9 0 -13 37 -16 151 l-3 151 -33 29
c-43 38 -98 40 -140 4 -42 -35 -49 -63 -48 -198 1 -65 -1 -123 -5 -128 -8 -13
-75 4 -142 36 -113 55 -193 146 -217 246 -11 46 -10 157 3 224 3 11 7 36 11
55 3 19 8 45 10 56 2 12 7 39 10 60 13 82 87 358 132 490 89 264 159 402 247
486 54 52 58 53 89 37z m-4702 -501 c81 -87 170 -275 236 -498 33 -111 29 -94
63 -260 26 -127 30 -167 22 -261 -2 -33 -89 -115 -148 -142 -103 -45 -97 -51
-98 100 -2 145 -11 181 -54 206 -48 28 -94 22 -135 -17 -32 -30 -36 -39 -37
-87 -4 -248 -3 -234 -24 -231 -44 7 -146 65 -178 102 -61 72 -66 129 -27 320
64 314 185 635 280 743 46 52 69 58 100 25z m4056 -275 c-9 -32 -25 -98 -30
-123 -2 -14 -11 -56 -20 -95 -56 -264 -54 -457 7 -569 36 -68 104 -152 159
-199 89 -75 238 -144 352 -162 16 -2 31 -7 34 -10 7 -7 9 -134 1 -146 -3 -5
-72 32 -154 82 -193 119 -303 170 -490 229 -72 23 -256 60 -295 60 -19 0 -30
6 -34 18 -2 9 -4 179 -4 378 l1 361 93 21 c110 25 238 78 314 132 63 43 73 47
66 23z m-3367 -837 c40 -21 112 -47 160 -59 l86 -23 0 -143 c1 -135 0 -144
-20 -151 -11 -5 -65 -23 -120 -40 -199 -64 -421 -166 -662 -306 -23 -13 -45
-24 -50 -24 -5 0 -9 96 -9 214 l0 214 56 12 c84 18 211 83 273 140 63 58 107
123 133 197 l18 52 31 -23 c16 -13 63 -40 104 -60z m2985 -332 c193 -34 349
-93 556 -212 126 -73 206 -127 445 -302 110 -80 253 -184 317 -231 65 -46 118
-88 118 -93 0 -9 -456 -2 -535 9 -186 23 -220 30 -565 112 -233 55 -348 82
-465 109 -11 2 -29 6 -40 8 -11 2 -64 13 -118 25 -54 12 -114 24 -135 26 -20
3 -48 8 -62 11 -14 2 -34 6 -46 8 -12 2 -45 7 -75 11 -30 4 -56 8 -59 10 -4 3
-45 7 -210 21 -25 2 -145 4 -268 5 l-222 1 57 45 c274 214 629 393 853 429 19
3 53 9 75 14 65 12 294 9 379 -6z m-2074 -257 c147 -30 430 -122 430 -140 0
-4 -133 -106 -157 -120 -6 -4 -78 -21 -160 -37 -81 -17 -157 -32 -168 -35
-136 -27 -241 -51 -396 -90 -101 -26 -191 -48 -199 -50 -8 -2 -51 -12 -95 -24
-88 -22 -277 -56 -370 -67 -33 -3 -73 -8 -90 -11 -38 -6 -565 -14 -565 -9 0 2
15 13 33 24 17 10 97 59 176 107 129 77 203 120 335 194 238 134 481 230 652
257 21 3 41 7 45 9 3 2 39 7 80 11 40 3 75 7 76 9 2 1 58 0 125 -1 82 -2 165
-11 248 -27z"/>
</g>
</svg>
